<?xml version="1.0" encoding="UTF-8" standalone="no"?>
<svg width="170px" height="99px" viewBox="0 0 170 99" version="1.1" xmlns="http://www.w3.org/2000/svg" xmlns:xlink="http://www.w3.org/1999/xlink">
    <!-- Generator: Sketch 41.2 (35397) - http://www.bohemiancoding.com/sketch -->
    <title>p_login_logo_assured</title>
    <desc>Created with Sketch.</desc>
    <defs></defs>
    <g id="Page-1" stroke="none" stroke-width="1" fill="none" fill-rule="evenodd">
        <g id="p_login_logo_assured">
            <g id="Group-36" transform="translate(45.485697, 13.541860)">
                <path d="M35.2952188,7.91243321 L34.3564285,2.90450951 L33.9994174,2.90450951 L33.0789065,7.91243321 L32.9098791,8.38179227 L35.4642461,8.38179227 L35.2952188,7.91243321 Z M37.7372018,14.0082424 C36.6102021,14.0082424 36.6102021,13.9893148 36.4222184,13.14546 L35.5960379,9.41289502 L32.7408517,9.41289502 L31.7266874,14.0082424 L31.6325827,14.0082424 C30.8246815,14.0082424 30.5994621,14.0082424 30.5994621,13.7083303 C30.5994621,13.5771892 30.6371491,13.3892653 33.5670323,0.503860739 L34.7689546,0.503860739 L37.8306295,14.0082424 L37.7372018,14.0082424 Z" id="Fill-2" fill="#DEEFE2"></path>
                <path d="M38.2442388,13.7645723 L38.2442388,12.7140913 L40.9863639,12.9013392 C43.2593195,12.9013392 42.9589518,11.419805 42.9589518,9.86346169 C42.9589518,7.93127066 38.2819258,6.14937367 38.2819258,3.3924807 C38.2819258,1.44181274 38.2442388,0.278892864 41.3246443,0.278892864 L43.3159629,0.654064651 C43.3159629,1.46074032 42.9961874,1.46074032 42.4891053,1.42333581 L41.437254,1.31044628 C39.5592222,1.31044628 39.4838481,2.13582421 39.4838481,3.26111424 C39.4838481,5.49299204 44.1798304,6.91864483 44.1798304,9.63813329 C44.1798304,11.7384193 44.3678142,14.1390681 40.9676332,14.1390681 L38.2442388,13.7645723 Z" id="Fill-4" fill="#DEEFE2"></path>
                <path d="M45.5884672,13.7645723 L45.5884672,12.7140913 L48.3303666,12.9013392 C50.6035479,12.9013392 50.3029545,11.419805 50.3029545,9.86346169 C50.3029545,7.93127066 45.6254772,6.14937367 45.6254772,3.3924807 C45.6254772,1.44181274 45.5884672,0.278892864 48.6688727,0.278892864 L50.6599656,0.654064651 C50.6599656,1.46074032 50.3404158,1.46074032 49.8333337,1.42333581 L48.781031,1.31044628 C46.9032249,1.31044628 46.8276252,2.13582421 46.8276252,3.26111424 C46.8276252,5.49299204 51.5238331,6.91864483 51.5238331,9.63813329 C51.5238331,11.7384193 51.7118169,14.1390681 48.3118616,14.1390681 L45.5884672,13.7645723 Z" id="Fill-6" fill="#DEEFE2"></path>
                <path d="M58.492252,0.503883272 L58.6235924,0.503883272 C59.6944,0.503883272 59.7133564,0.503883272 59.7133564,1.36711637 L59.7133564,8.43769624 C59.7133564,12.3014023 59.6944,14.1391808 56.6514559,14.1391808 C53.645973,14.1391808 53.6647037,12.3014023 53.6647037,8.43769624 L53.6647037,0.503883272 L53.7964954,0.503883272 C54.8670774,0.503883272 54.8860337,0.503883272 54.8860337,1.36711637 L54.8860337,8.43769624 C54.8860337,11.6634976 54.8108853,13.0706735 56.6514559,13.0706735 C58.492252,13.0706735 58.492252,11.6634976 58.492252,8.43769624 L58.492252,0.503883272 Z" id="Fill-8" fill="#DEEFE2"></path>
                <path d="M64.5776439,6.52481585 C66.4561271,6.52481585 66.4561271,5.79317454 66.4561271,3.93624319 C66.4561271,2.07953718 66.4561271,1.34812119 64.5776439,1.34812119 L63.6198973,1.34812119 L63.6198973,1.81680426 L63.6198973,6.05590745 L63.544749,6.52481585 L64.5776439,6.52481585 Z M68.7665441,14.0081974 C67.5264834,14.0081974 67.4700657,14.0268996 67.0758189,13.1454149 L64.5399569,7.59377378 L63.544749,7.59377378 L63.6198973,8.06268219 L63.6198973,13.1454149 L63.6388537,13.1454149 C63.6388537,14.0081974 63.6198973,14.0081974 62.549541,14.0081974 L62.43648,14.0081974 L62.43648,0.466411159 L64.5776439,0.27893793 C67.6770058,0.27893793 67.6770058,1.70414006 67.6770058,3.93624319 C67.6770058,5.99957535 67.5264834,7.46240733 65.7235999,7.57529686 L68.8414668,14.0081974 L68.7665441,14.0081974 Z" id="Fill-10" fill="#DEEFE2"></path>
                <polygon id="Fill-12" fill="#DEEFE2" points="70.9453499 14.0081748 70.9453499 0.503793141 75.8852823 0.503793141 75.8852823 1.49816737 72.1100366 1.49816737 72.1847336 1.96707577 72.1847336 5.69941539 72.1100366 6.16832379 75.6223759 6.16832379 75.6223759 7.23728172 72.1100366 7.23728172 72.1847336 7.70619012 72.1847336 12.4703085 72.1100366 12.9392169 76.0730403 12.9392169 76.0730403 14.0081748"></polygon>
                <path d="M81.2007984,13.0705608 C83.2293527,13.0705608 83.2293527,10.3697746 83.2293527,7.14329725 C83.2293527,3.89879361 83.2293527,1.34830145 81.2007984,1.34830145 L79.2850796,1.34830145 L79.3600023,1.81698452 L79.3600023,12.6016524 L79.2850796,13.0705608 L81.2007984,13.0705608 Z M78.1772619,14.0081523 L78.1772619,0.466366093 L81.2007984,0.278892864 C84.4125443,0.278892864 84.4125443,3.28004183 84.4125443,7.14329725 C84.4125443,11.0072287 84.4125443,14.1390681 81.2007984,14.1390681 L78.1772619,14.0081523 Z" id="Fill-14" fill="#DEEFE2"></path>
                <path d="M0.185456209,13.7636935 L0.185456209,12.7136632 L2.92735563,12.9009111 C5.20008559,12.9009111 4.89971785,11.4191515 4.89971785,9.86258291 C4.89971785,7.93016655 0.222917551,6.14894555 0.222917551,3.39182725 C0.222917551,1.44115929 0.185456209,0.278690069 3.26586173,0.278690069 L5.25672895,0.65318587 C5.25672895,1.45986154 4.93740486,1.45986154 4.43009705,1.42268236 L3.37824576,1.30979283 C1.50021391,1.30979283 1.42506555,2.13494543 1.42506555,3.26068612 C1.42506555,5.49233859 6.12082219,6.91799138 6.12082219,9.63725451 C6.12082219,11.7377659 6.30880591,14.1384146 2.90862496,14.1384146 L0.185456209,13.7636935 Z" id="Fill-16" fill="#7B9DA6"></path>
                <path d="M10.2341904,14.1384372 C7.8673557,14.1384372 7.8673557,12.638426 7.8673557,8.92478864 L7.8673557,3.93556721 C8.97539901,3.93556721 8.97539901,3.93556721 8.97539901,4.79834965 L8.97539901,8.8871588 C8.97539901,11.587945 8.97539901,13.1447389 10.159042,13.1447389 L12.0183432,12.2821818 L11.9242385,11.8130481 L11.9242385,3.93556721 C13.0329588,3.93556721 13.0329588,3.93556721 13.0329588,4.79834965 L13.0329588,14.0075214 C11.9242385,14.0075214 11.9242385,14.0075214 11.9242385,13.2574031 L10.2341904,14.1384372 Z" id="Fill-18" fill="#7B9DA6"></path>
                <path d="M15.4371871,3.93552214 C16.5452304,3.93552214 16.5452304,3.93552214 16.5452304,4.79830459 L16.5452304,14.082736 C15.4371871,14.082736 15.4371871,14.082736 15.4371871,13.2199535 L15.4371871,3.93552214 Z M15.1180887,1.34740014 C15.098681,0.878942394 15.5123355,0.503545279 15.9819563,0.503545279 C16.4513514,0.503545279 16.8455982,0.878942394 16.8455982,1.34740014 C16.8455982,1.8167592 16.4513514,2.21018258 15.9819563,2.21018258 C15.5123355,2.21018258 15.1180887,1.8167592 15.1180887,1.34740014 L15.1180887,1.34740014 Z" id="Fill-20" fill="#7B9DA6"></path>
                <path d="M20.7901421,14.1010327 C18.9493459,14.1010327 18.9493459,13.1073344 18.9493459,9.73101366 L18.9493459,5.4175521 L19.0244942,4.94864369 L18.216593,4.94864369 L18.216593,3.93556721 L19.0244942,3.93556721 L18.9493459,3.27941091 L18.9493459,2.45425831 C20.0576149,2.45425831 20.0576149,2.45425831 20.0576149,3.31681542 L19.9826922,3.93556721 L21.7102016,3.93556721 C21.7102016,4.81727724 21.7102016,4.94864369 20.8088727,4.94864369 L19.9826922,4.94864369 L20.0576149,5.4175521 L20.0576149,9.73101366 C20.0576149,12.2632542 20.0386585,13.1447389 20.8088727,13.1447389 L22.0861691,13.1447389 L22.0861691,14.0075214 L20.7901421,14.1010327 Z" id="Fill-22" fill="#7B9DA6"></path>
                <path d="M26.8194548,7.57444061 C26.8194548,5.77406669 26.7066194,4.79839472 25.7299165,4.79839472 C24.3025491,4.79839472 24.3025491,5.77406669 24.3212797,7.59269221 L24.2463571,8.06182594 L26.9131081,8.06182594 L26.8194548,7.57444061 Z M27.9274981,13.8198679 C27.1579609,13.9886388 26.5186357,14.1384822 25.7299165,14.1384822 C23.1191317,14.1384822 23.1191317,12.7883145 23.1191317,9.07490242 C23.1191317,5.34211215 23.1191317,3.80469647 25.7299165,3.80469647 C27.8902624,3.80469647 27.8902624,5.2862307 27.8902624,7.96808932 L27.9656364,8.98116581 L24.1335217,9.07490242 L24.2084444,9.54381082 C24.2084444,12.1700133 24.2084444,13.1073795 25.7299165,13.1073795 C26.5186357,13.1073795 27.1951965,13.0323451 27.9274981,12.8635741 L27.9274981,13.8198679 Z" id="Fill-24" fill="#7B9DA6"></path>
            </g>
            <path d="M20.4277585,1.47587459 C12.4074206,1.47587459 5.88215136,7.99034397 5.88215136,15.9980647 C5.88215136,24.0060107 12.4074206,30.5209307 20.4277585,30.5209307 C28.4476451,30.5209307 34.9715603,24.0060107 34.9715603,15.9980647 C34.9715603,7.99034397 28.4476451,1.47587459 20.4277585,1.47587459 M20.4277585,31.1651446 C12.0515379,31.1651446 5.23673306,24.3613536 5.23673306,15.9980647 C5.23673306,7.63522641 12.0515379,0.831660699 20.4277585,0.831660699 C28.8030765,0.831660699 35.6163016,7.63522641 35.6163016,15.9980647 C35.6163016,24.3613536 28.8030765,31.1651446 20.4277585,31.1651446" id="Fill-26" fill="#E95E4A"></path>
            <path d="M20.4277585,9.94934072 C12.4074206,9.94934072 5.88215136,16.4638101 5.88215136,24.4713055 C5.88215136,32.4790261 12.4074206,38.9939462 20.4277585,38.9939462 C28.4476451,38.9939462 34.9715603,32.4790261 34.9715603,24.4713055 C34.9715603,16.4638101 28.4476451,9.94934072 20.4277585,9.94934072 M20.4277585,39.6377094 C12.0515379,39.6377094 5.23673306,32.8341437 5.23673306,24.4713055 C5.23673306,16.1084672 12.0515379,9.30512683 20.4277585,9.30512683 C28.8030765,9.30512683 35.6163016,16.1084672 35.6163016,24.4713055 C35.6163016,32.8341437 28.8030765,39.6377094 20.4277585,39.6377094" id="Fill-28" fill="#E95E4A"></path>
            <path d="M23.6037286,5.71260766 C15.5840678,5.71260766 9.05970116,12.2273024 9.05970116,20.235023 C9.05970116,28.2427437 15.5840678,34.7578891 23.6037286,34.7578891 C31.6238409,34.7578891 38.1491101,28.2427437 38.1491101,20.235023 C38.1491101,12.2273024 31.6238409,5.71260766 23.6037286,5.71260766 M23.6037286,35.402103 C15.2284107,35.402103 8.41428286,28.5980866 8.41428286,20.235023 C8.41428286,11.8719595 15.2284107,5.06839376 23.6037286,5.06839376 C31.9794979,5.06839376 38.7943028,11.8719595 38.7943028,20.235023 C38.7943028,28.5980866 31.9794979,35.402103 23.6037286,35.402103" id="Fill-30" fill="#E95E4A"></path>
            <path d="M16.1905741,5.71260766 C8.17023624,5.71260766 1.64519263,12.2273024 1.64519263,20.235023 C1.64519263,28.2427437 8.17023624,34.7578891 16.1905741,34.7578891 C24.2104607,34.7578891 30.7348273,28.2427437 30.7348273,20.235023 C30.7348273,12.2273024 24.2104607,5.71260766 16.1905741,5.71260766 M16.1905741,35.402103 C7.81457916,35.402103 1,28.5980866 1,20.235023 C1,11.8719595 7.81457916,5.06839376 16.1905741,5.06839376 C24.5661178,5.06839376 31.3795686,11.8719595 31.3795686,20.235023 C31.3795686,28.5980866 24.5661178,35.402103 16.1905741,35.402103" id="Fill-32" fill="#E95E4A"></path>
            <path d="M20.4277585,5.71260766 C12.4074206,5.71260766 5.88215136,12.2273024 5.88215136,20.235023 C5.88215136,28.2427437 12.4074206,34.7578891 20.4277585,34.7578891 C28.4476451,34.7578891 34.9715603,28.2427437 34.9715603,20.235023 C34.9715603,12.2273024 28.4476451,5.71260766 20.4277585,5.71260766 M20.4277585,35.402103 C12.0515379,35.402103 5.23673306,28.5980866 5.23673306,20.235023 C5.23673306,11.8719595 12.0515379,5.06839376 20.4277585,5.06839376 C28.8030765,5.06839376 35.6163016,11.8719595 35.6163016,20.235023 C35.6163016,28.5980866 28.8030765,35.402103 20.4277585,35.402103" id="Fill-34" fill="#E95E4A"></path>
            <path d="M19.4904487,25.5752952 C19.4516333,25.5752952 19.4123666,25.5705633 19.3726486,25.5608741 C19.1133529,25.4959796 18.9556091,25.2336973 19.0208279,24.974795 L21.2615126,16.0261029 C21.3256031,15.7676512 21.5864785,15.6099213 21.8484822,15.6748159 C22.1077779,15.7394852 22.2650704,16.0017674 22.2005286,16.2608951 L19.9593925,25.2093618 C19.9045545,25.4288317 19.7070926,25.5752952 19.4904487,25.5752952" id="Fill-36" fill="#DEEFE2"></path>
            <path d="M26.5267221,21.1116319 C26.3865806,21.1116319 26.2477931,21.0507932 26.151883,20.9338478 L23.3519862,17.5084054 C23.1829589,17.3017793 23.2136501,16.9973606 23.4205902,16.828815 C23.6270789,16.6589174 23.9321857,16.6906887 24.1016644,16.8977655 L26.9011099,20.3229825 C27.0701373,20.5296086 27.0392204,20.8342526 26.8322803,21.0030236 C26.742689,21.07603 26.6345927,21.1116319 26.5267221,21.1116319" id="Fill-38" fill="#DEEFE2"></path>
            <path d="M23.7263752,24.1489882 C23.6155709,24.1489882 23.5043152,24.1109077 23.4129186,24.0338453 C23.2098149,23.8607931 23.1849911,23.5561491 23.3580806,23.3526776 L26.1579774,20.0671642 C26.3310668,19.8636926 26.636625,19.8393572 26.84018,20.0119587 C27.043735,20.1850109 27.0685588,20.4898803 26.895018,20.6929011 L24.0951212,23.9788652 C23.9996625,24.0910788 23.863583,24.1489882 23.7263752,24.1489882" id="Fill-40" fill="#DEEFE2"></path>
            <path d="M16.9945465,24.28894 C16.8539537,24.28894 16.7151662,24.2281013 16.6192561,24.1109306 L13.8191336,20.6857136 C13.6503319,20.4790874 13.6810231,20.1751194 13.8881889,20.0061231 C14.0946776,19.8366761 14.3995588,19.8682221 14.5688118,20.0748483 L17.3691599,23.5002906 C17.5379617,23.7069167 17.5070448,24.0111101 17.3001047,24.1801064 C17.2105134,24.2533381 17.1019658,24.28894 16.9945465,24.28894" id="Fill-42" fill="#DEEFE2"></path>
            <path d="M14.1938932,20.9711761 C14.0828632,20.9711761 13.9716075,20.9335463 13.8804365,20.8560333 C13.6771072,20.6829811 13.6522834,20.3783371 13.8255986,20.1750909 L16.625721,16.8893522 C16.7988105,16.6865566 17.104143,16.6615452 17.307698,16.834372 C17.511253,17.0074243 17.5363024,17.3120682 17.3627616,17.5153145 L14.5624135,20.8010532 C14.4669548,20.9132667 14.3308753,20.9711761 14.1938932,20.9711761" id="Fill-44" fill="#DEEFE2"></path>
            <g id="Group-36" transform="translate(33.184294, 79.758012)">
                <path d="M25.5352114,5.72444829 L24.8560201,2.10134027 L24.5977314,2.10134027 L23.9317647,5.72444829 L23.8094776,6.06401788 L25.6574985,6.06401788 L25.5352114,5.72444829 Z M27.3019253,10.1346144 C26.4865691,10.1346144 26.4865691,10.1209207 26.3505676,9.51041278 L25.7528465,6.80999503 L23.6871905,6.80999503 L22.9534679,10.1346144 L22.8853855,10.1346144 C22.3008891,10.1346144 22.1379485,10.1346144 22.1379485,9.91763545 C22.1379485,9.82275811 22.1652141,9.68679986 24.2849116,0.364530691 L25.1544724,0.364530691 L27.3695179,10.1346144 L27.3019253,10.1346144 Z" id="Fill-2" fill="#DEEFE2"></path>
                <path d="M27.6687539,9.95832511 L27.6687539,9.19832828 L29.6526131,9.33379747 C31.2970399,9.33379747 31.0797313,8.26194437 31.0797313,7.13596879 C31.0797313,5.73807672 27.6960195,4.44891864 27.6960195,2.45437526 C27.6960195,1.04311559 27.6687539,0.201772039 29.8973506,0.201772039 L31.3380199,0.473199479 C31.3380199,1.05680923 31.1066704,1.05680923 30.7398091,1.029748 L29.9788209,0.948075235 C28.6201116,0.948075235 28.5655804,1.5452156 28.5655804,2.3593349 C28.5655804,3.97404289 31.9630066,5.00546716 31.9630066,6.97294931 C31.9630066,8.49245392 32.0990081,10.2292635 29.6390619,10.2292635 L27.6687539,9.95832511 Z" id="Fill-4" fill="#DEEFE2"></path>
                <path d="M32.9821202,9.95832511 L32.9821202,9.19832828 L34.9658161,9.33379747 C36.6104061,9.33379747 36.3929343,8.26194437 36.3929343,7.13596879 C36.3929343,5.73807672 33.008896,4.44891864 33.008896,2.45437526 C33.008896,1.04311559 32.9821202,0.201772039 35.2107168,0.201772039 L36.6512229,0.473199479 C36.6512229,1.05680923 36.4200366,1.05680923 36.0531753,1.029748 L35.2918606,0.948075235 C33.9333146,0.948075235 33.8786201,1.5452156 33.8786201,2.3593349 C33.8786201,3.97404289 37.2762096,5.00546716 37.2762096,6.97294931 C37.2762096,8.49245392 37.4122111,10.2292635 34.9524282,10.2292635 L32.9821202,9.95832511 Z" id="Fill-6" fill="#DEEFE2"></path>
                <path d="M42.317687,0.364546993 L42.4127085,0.364546993 C43.1874112,0.364546993 43.2011256,0.364546993 43.2011256,0.989074635 L43.2011256,6.10446301 C43.2011256,8.89975809 43.1874112,10.229345 40.9859169,10.229345 C38.8115249,10.229345 38.8250761,8.89975809 38.8250761,6.10446301 L38.8250761,0.364546993 L38.9204241,0.364546993 C39.6949635,0.364546993 39.7086779,0.364546993 39.7086779,0.989074635 L39.7086779,6.10446301 C39.7086779,8.43824994 39.65431,9.45630661 40.9859169,9.45630661 C42.317687,9.45630661 42.317687,8.43824994 42.317687,6.10446301 L42.317687,0.364546993 Z" id="Fill-8" fill="#DEEFE2"></path>
                <path d="M46.7203165,4.72054171 C48.0793522,4.72054171 48.0793522,4.19121744 48.0793522,2.84777388 C48.0793522,1.50449334 48.0793522,0.975332092 46.7203165,0.975332092 L46.0274107,0.975332092 L46.0274107,1.31441262 L46.0274107,4.38129816 L45.9730427,4.72054171 L46.7203165,4.72054171 Z M49.7508814,10.1345818 C48.8537284,10.1345818 48.8129116,10.1481124 48.5276839,9.51038017 L46.6930508,5.49390614 L45.9730427,5.49390614 L46.0274107,5.83314968 L46.0274107,9.51038017 L46.0411251,9.51038017 C46.0411251,10.1345818 46.0274107,10.1345818 45.2530345,10.1345818 L45.1712377,10.1345818 L45.1712377,0.337436853 L46.7203165,0.201804643 C48.9626275,0.201804643 48.9626275,1.23290288 48.9626275,2.84777388 C48.9626275,4.34054329 48.8537284,5.39886578 47.5493871,5.48053854 L49.8050861,10.1345818 L49.7508814,10.1345818 Z" id="Fill-10" fill="#DEEFE2"></path>
                <polygon id="Fill-12" fill="#DEEFE2" points="51.3271931 10.1345655 51.3271931 0.364481785 54.9011111 0.364481785 54.9011111 1.08388677 52.1698149 1.08388677 52.2238563 1.42313031 52.2238563 4.12338504 52.1698149 4.46262858 54.7109048 4.46262858 54.7109048 5.23599301 52.1698149 5.23599301 52.2238563 5.57523656 52.2238563 9.0219575 52.1698149 9.36120105 55.0369493 9.36120105 55.0369493 10.1345655"></polygon>
                <path d="M58.7467546,9.4562251 C60.214363,9.4562251 60.214363,7.50227357 60.214363,5.16799759 C60.214363,2.82068004 60.214363,0.975462508 58.7467546,0.975462508 L57.3607797,0.975462508 L57.4149844,1.31454303 L57.4149844,9.11698156 L57.3607797,9.4562251 L58.7467546,9.4562251 Z M56.5593013,10.1345492 L56.5593013,0.337404249 L58.7467546,0.201772039 C61.0703727,0.201772039 61.0703727,2.37302854 61.0703727,5.16799759 C61.0703727,7.96345569 61.0703727,10.2292635 58.7467546,10.2292635 L56.5593013,10.1345492 Z" id="Fill-14" fill="#DEEFE2"></path>
                <path d="M0.134172947,9.95768934 L0.134172947,9.19801854 L2.11786886,9.33348773 C3.76213237,9.33348773 3.54482379,8.26147161 3.54482379,7.13533302 C3.54482379,5.73727793 0.161275294,4.44860891 0.161275294,2.45390251 C0.161275294,1.04264284 0.134172947,0.201625321 2.3627696,0.201625321 L3.80311243,0.472563703 C3.80311243,1.05617345 3.5720894,1.05617345 3.20506484,1.02927524 L2.44407664,0.947602478 C1.08536738,0.947602478 1.03099942,1.54457983 1.03099942,2.35902517 C1.03099942,3.97357013 4.42826236,5.0049944 4.42826236,6.97231353 C4.42826236,8.49198116 4.5642639,10.2287907 2.10431769,10.2287907 L0.134172947,9.95768934 Z" id="Fill-16" fill="#7B9DA6"></path>
                <path d="M7.40418175,10.228807 C5.69183584,10.228807 5.69183584,9.14358634 5.69183584,6.45686223 L5.69183584,2.84728482 C6.49347756,2.84728482 6.49347756,2.84728482 6.49347756,3.47148642 L6.49347756,6.42963797 C6.49347756,8.3835895 6.49347756,9.50989112 7.34981379,9.50989112 L8.69497186,8.88585253 L8.62688946,8.54644597 L8.62688946,2.84728482 C9.42902099,2.84728482 9.42902099,2.84728482 9.42902099,3.47148642 L9.42902099,10.1340927 C8.62688946,10.1340927 8.62688946,10.1340927 8.62688946,9.59140086 L7.40418175,10.228807 Z" id="Fill-18" fill="#7B9DA6"></path>
                <path d="M11.1684203,2.84725222 C11.970062,2.84725222 11.970062,2.84725222 11.970062,3.47145382 L11.970062,10.1885086 C11.1684203,10.1885086 11.1684203,10.1885086 11.1684203,9.56430702 L11.1684203,2.84725222 Z M10.9375605,0.97481043 C10.9235195,0.635892924 11.2227882,0.364302464 11.5625472,0.364302464 C11.9021429,0.364302464 12.1873706,0.635892924 12.1873706,0.97481043 C12.1873706,1.31438001 11.9021429,1.59901203 11.5625472,1.59901203 C11.2227882,1.59901203 10.9375605,1.31438001 10.9375605,0.97481043 L10.9375605,0.97481043 Z" id="Fill-20" fill="#7B9DA6"></path>
                <path d="M15.0411498,10.2017458 C13.7093796,10.2017458 13.7093796,9.48282988 13.7093796,7.04014594 L13.7093796,3.91946397 L13.7637476,3.58022042 L13.1792512,3.58022042 L13.1792512,2.84728482 L13.7637476,2.84728482 L13.7093796,2.37257209 L13.7093796,1.77559474 C14.5111846,1.77559474 14.5111846,1.77559474 14.5111846,2.39963332 L14.4569799,2.84728482 L15.70679,2.84728482 C15.70679,3.48518006 15.70679,3.58022042 15.054701,3.58022042 L14.4569799,3.58022042 L14.5111846,3.91946397 L14.5111846,7.04014594 C14.5111846,8.8721589 14.4974702,9.50989112 15.054701,9.50989112 L15.9787931,9.50989112 L15.9787931,10.1340927 L15.0411498,10.2017458 Z" id="Fill-22" fill="#7B9DA6"></path>
                <path d="M19.4032073,5.47991907 C19.4032073,4.17739339 19.3215738,3.47151903 18.6149535,3.47151903 C17.5822888,3.47151903 17.5822888,4.17739339 17.5958399,5.49312364 L17.5416352,5.83253021 L19.4709632,5.83253021 L19.4032073,5.47991907 Z M20.2048491,9.99833009 C19.6481081,10.1204317 19.1855722,10.2288396 18.6149535,10.2288396 C16.7261158,10.2288396 16.7261158,9.2520269 16.7261158,6.56546581 C16.7261158,3.86488504 16.7261158,2.75260311 18.6149535,2.75260311 C20.17791,2.75260311 20.17791,3.82445621 20.17791,5.7647141 L20.2324412,6.4976497 L17.4600017,6.56546581 L17.5142064,6.90470935 C17.5142064,8.80470143 17.5142064,9.48286249 18.6149535,9.48286249 C19.1855722,9.48286249 19.6750471,9.428577 20.2048491,9.3064754 L20.2048491,9.99833009 Z" id="Fill-24" fill="#7B9DA6"></path>
            </g>
            <path d="M15.0554993,71.0285727 C9.25298463,71.0285727 4.53211488,75.741629 4.53211488,81.5350154 C4.53211488,87.3285648 9.25298463,92.0419472 15.0554993,92.0419472 C20.8576874,92.0419472 25.5775775,87.3285648 25.5775775,81.5350154 C25.5775775,75.741629 20.8576874,71.0285727 15.0554993,71.0285727 M15.0554993,92.5080199 C8.99551232,92.5080199 4.06517082,87.5856466 4.06517082,81.5350154 C4.06517082,75.4847103 8.99551232,70.5625 15.0554993,70.5625 C21.1148331,70.5625 26.0440318,75.4847103 26.0440318,81.5350154 C26.0440318,87.5856466 21.1148331,92.5080199 15.0554993,92.5080199" id="Fill-26" fill="#E95E4A"></path>
            <path d="M15.0554993,77.1589143 C9.25298463,77.1589143 4.53211488,81.8719706 4.53211488,87.665194 C4.53211488,93.4585804 9.25298463,98.1719627 15.0554993,98.1719627 C20.8576874,98.1719627 25.5775775,93.4585804 25.5775775,87.665194 C25.5775775,81.8719706 20.8576874,77.1589143 15.0554993,77.1589143 M15.0554993,98.6377094 C8.99551232,98.6377094 4.06517082,93.7154991 4.06517082,87.665194 C4.06517082,81.6148889 8.99551232,76.6928416 15.0554993,76.6928416 C21.1148331,76.6928416 26.0440318,81.6148889 26.0440318,87.665194 C26.0440318,93.7154991 21.1148331,98.6377094 15.0554993,98.6377094" id="Fill-28" fill="#E95E4A"></path>
            <path d="M17.3532345,74.0937435 C11.5512097,74.0937435 6.83099299,78.8069628 6.83099299,84.6003492 C6.83099299,90.3937356 11.5512097,95.107281 17.3532345,95.107281 C23.1555859,95.107281 27.8764556,90.3937356 27.8764556,84.6003492 C27.8764556,78.8069628 23.1555859,74.0937435 17.3532345,74.0937435 M17.3532345,95.5733537 C11.2939006,95.5733537 6.36404893,90.6508174 6.36404893,84.6003492 C6.36404893,78.5498811 11.2939006,73.6276708 17.3532345,73.6276708 C23.4128949,73.6276708 28.3432364,78.5498811 28.3432364,84.6003492 C28.3432364,90.6508174 23.4128949,95.5733537 17.3532345,95.5733537" id="Fill-30" fill="#E95E4A"></path>
            <path d="M11.9900019,74.0937435 C6.18748727,74.0937435 1.46678079,78.8069628 1.46678079,84.6003492 C1.46678079,90.3937356 6.18748727,95.107281 11.9900019,95.107281 C17.79219,95.107281 22.5124067,90.3937356 22.5124067,84.6003492 C22.5124067,78.8069628 17.79219,74.0937435 11.9900019,74.0937435 M11.9900019,95.5733537 C5.93017824,95.5733537 1,90.6508174 1,84.6003492 C1,78.5498811 5.93017824,73.6276708 11.9900019,73.6276708 C18.0494991,73.6276708 22.978861,78.5498811 22.978861,84.6003492 C22.978861,90.6508174 18.0494991,95.5733537 11.9900019,95.5733537" id="Fill-32" fill="#E95E4A"></path>
            <path d="M15.0554993,74.0937435 C9.25298463,74.0937435 4.53211488,78.8069628 4.53211488,84.6003492 C4.53211488,90.3937356 9.25298463,95.107281 15.0554993,95.107281 C20.8576874,95.107281 25.5775775,90.3937356 25.5775775,84.6003492 C25.5775775,78.8069628 20.8576874,74.0937435 15.0554993,74.0937435 M15.0554993,95.5733537 C8.99551232,95.5733537 4.06517082,90.6508174 4.06517082,84.6003492 C4.06517082,78.5498811 8.99551232,73.6276708 15.0554993,73.6276708 C21.1148331,73.6276708 26.0440318,78.5498811 26.0440318,84.6003492 C26.0440318,90.6508174 21.1148331,95.5733537 15.0554993,95.5733537" id="Fill-34" fill="#E95E4A"></path>
            <path d="M14.377379,88.4639031 C14.349297,88.4639031 14.3208885,88.4604796 14.2921535,88.4534698 C14.1045595,88.4065202 13.9904358,88.2167655 14.03762,88.0294561 L15.6586996,81.5553004 C15.7050675,81.368317 15.8938043,81.2542034 16.0833575,81.301153 C16.2709514,81.3479396 16.3847486,81.5376943 16.3380542,81.7251667 L14.7166481,88.1991594 C14.6769742,88.3579404 14.5341154,88.4639031 14.377379,88.4639031" id="Fill-36" fill="#DEEFE2"></path>
            <path d="M19.4679475,85.2345539 C19.3665586,85.2345539 19.2661493,85.1905386 19.1967607,85.1059315 L17.1711052,82.6277093 C17.0488181,82.4782205 17.0710224,82.2579811 17.2207384,82.1360426 C17.3701278,82.0131259 17.590865,82.0361116 17.7134786,82.1859265 L19.7388077,84.6639857 C19.8610948,84.8134746 19.8387272,85.0338769 19.6890112,85.1559785 C19.6241941,85.2087968 19.5459892,85.2345539 19.4679475,85.2345539" id="Fill-38" fill="#DEEFE2"></path>
            <path d="M17.4419663,87.4320055 C17.3618021,87.4320055 17.2813114,87.4044552 17.2151882,87.3487025 C17.0682477,87.2235036 17.0502884,87.0031012 17.1755143,86.8558946 L19.2011698,84.4789075 C19.3263957,84.3317009 19.5474595,84.3140948 19.6947264,84.4389678 C19.8419934,84.5641667 19.8599528,84.7847321 19.7344004,84.9316126 L17.7087448,87.3089258 C17.6396828,87.3901095 17.5412327,87.4320055 17.4419663,87.4320055" id="Fill-40" fill="#DEEFE2"></path>
            <path d="M12.5716559,87.5332571 C12.4699405,87.5332571 12.3695312,87.4892419 12.3001426,87.4044718 L10.2743238,84.9264126 C10.1522,84.7769237 10.1744043,84.5570104 10.3242835,84.4347458 C10.473673,84.3121552 10.6942469,84.3349779 10.8166973,84.4844668 L12.8426794,86.962689 C12.9648032,87.1121778 12.9424356,87.3322541 12.7927196,87.4545187 C12.7279026,87.5075001 12.6493711,87.5332571 12.5716559,87.5332571" id="Fill-42" fill="#DEEFE2"></path>
            <path d="M10.545453,85.1329377 C10.4651256,85.1329377 10.3846349,85.1057134 10.3186749,85.0496347 C10.1715712,84.9244357 10.1536118,84.7040334 10.279001,84.5569898 L12.3048199,82.1798397 C12.4300458,82.0331222 12.6509462,82.015027 12.7982132,82.140063 C12.9454802,82.2652619 12.9636028,82.4856643 12.8380504,82.6327078 L10.8120683,85.0098579 C10.7430063,85.0910416 10.6445562,85.1329377 10.545453,85.1329377" id="Fill-44" fill="#DEEFE2"></path>
        </g>
    </g>
</svg>